<?xml version="1.0" encoding="UTF-8"?>
<svg id="Ebene_1" xmlns="http://www.w3.org/2000/svg" version="1.1" viewBox="0 0 2149.76 533.32">
  <!-- Generator: Adobe Illustrator 29.8.1, SVG Export Plug-In . SVG Version: 2.1.1 Build 2)  -->
  <defs>
    <style>
      .st0 {
        fill: #f9f9f9;
      }
    </style>
  </defs>
  <path class="st0" d="M509.66,301.24l-32.04-64.34v-37.05c0-61.42-49.29-111.16-110.09-111.16h-54.76c3.96-8.14,6.14-17.29,6.14-26.95,0-34.13-27.47-61.75-61.41-61.75s-61.41,27.62-61.41,61.75c0,9.66,2.18,18.81,6.14,26.95h-54.76c-60.79,0-110.09,49.74-110.09,111.16v37.05L4.68,301.07c-3.29,6.46-3.29,14.15,0,20.6l32.71,63.44v37.05c0,61.42,49.29,111.15,110.09,111.15h220.06c60.79,0,110.09-49.74,110.09-111.15v-37.05l31.99-63.66c3.18-6.34,3.18-13.81.05-20.21ZM224.01,353.68c0,27.9-22.5,50.53-50.24,50.53s-50.24-22.62-50.24-50.53v-89.82c0-27.9,22.5-50.53,50.24-50.53s50.24,22.62,50.24,50.53v89.82ZM385.9,353.68c0,27.9-22.5,50.53-50.24,50.53s-50.24-22.62-50.24-50.53v-89.82c0-27.9,22.5-50.53,50.24-50.53s50.24,22.62,50.24,50.53v89.82Z"/>
  <path class="st0" d="M716.77,508.32c-31.09,0-58.04-7.28-80.87-21.83-22.49-14.88-40.02-35.72-52.59-62.51-12.24-27.12-18.36-58.71-18.36-94.76s6.28-67.97,18.85-94.76c12.57-26.79,30.43-47.46,53.58-62.01,23.15-14.88,50.6-22.32,82.35-22.32,24.81,0,47.63,4.8,68.46,14.39,20.84,9.59,37.87,23.48,51.1,41.67,13.56,18.19,21,40.35,22.32,66.48h-89.3c-1.65-16.87-6.95-30.26-15.88-40.18-8.93-10.25-21.17-15.38-36.71-15.38-13.23,0-25.3,4.3-36.22,12.9-10.58,8.27-19.02,20.84-25.3,37.7-5.95,16.54-8.93,37.04-8.93,61.52s2.98,44.65,8.93,61.52c5.95,16.54,13.89,29.11,23.81,37.7,10.25,8.6,21.83,12.9,34.73,12.9,10.91,0,20.34-2.15,28.28-6.45,8.27-4.63,14.88-11.25,19.84-19.84,5.29-8.6,8.43-19.02,9.43-31.25h89.3c-2.65,25.47-10.25,47.63-22.82,66.48-12.24,18.52-28.77,32.91-49.61,43.16-20.84,9.92-45.64,14.88-74.42,14.88Z"/>
  <path class="st0" d="M997.27,502.37V135.25h77.39v367.12h-77.39ZM907.97,502.37v-62.51h256.99v62.51h-256.99ZM942.7,197.76v-62.51h93.27v62.51h-93.27Z"/>
  <path class="st0" d="M1319.93,502.37V226.53h77.39v275.84h-77.39ZM1230.63,502.37v-62.51h256.99v62.51h-256.99ZM1265.36,289.04v-62.51h93.27v62.51h-93.27ZM1316.96,189.82v-72.43h82.35v72.43h-82.35Z"/>
  <path class="st0" d="M1735.37,502.37v-170.17c0-14.22-3.64-25.63-10.91-34.23-7.28-8.6-16.87-12.9-28.77-12.9-13.56,0-26.13,4.63-37.7,13.89-11.25,8.93-23.15,24.47-35.72,46.63l-10.91-65.49c12.57-21.5,27.78-36.71,45.64-45.64,17.86-9.26,36.05-13.89,54.57-13.89,21.17,0,39.19,4.46,54.08,13.39,15.21,8.93,26.79,21.33,34.73,37.21,8.27,15.88,12.4,34.56,12.4,56.06v175.13h-77.39ZM1551.31,502.37V226.53h74.91l2.48,49.11v226.72h-77.39Z"/>
  <path class="st0" d="M2006.44,508.32c-29.77,0-55.4-5.79-76.9-17.36-21.17-11.58-37.54-28.11-49.11-49.61-11.58-21.5-17.36-47.13-17.36-76.9s5.79-55.9,17.36-77.39c11.58-21.5,28.28-37.87,50.11-49.11,22.16-11.58,48.78-17.36,79.87-17.36,48.62,0,83.84,13.89,105.67,41.67,22.16,27.45,31.42,65.32,27.78,113.61h-219.28l.5-53.08h139.9c-.99-12.57-6.61-22.66-16.87-30.26-10.25-7.94-22.99-11.91-38.2-11.91-23.81,0-41.34,7.44-52.59,22.32-11.25,14.88-16.87,36.55-16.87,64.99,0,14.22,2.48,27.29,7.44,39.19,4.96,11.91,12.24,21.5,21.83,28.77,9.92,6.95,22.16,10.42,36.71,10.42,15.54,0,28.61-3.8,39.19-11.41,10.91-7.61,17.53-17.2,19.84-28.77h77.39c-3.31,31.42-17.2,56.39-41.67,74.91-24.14,18.19-55.73,27.29-94.76,27.29Z"/>
</svg>