<svg width="206" height="33" viewBox="0 0 206 33" fill="none" xmlns="http://www.w3.org/2000/svg">
<g clip-path="url(#clip0_760_432)">
<mask id="mask0_760_432" style="mask-type:luminance" maskUnits="userSpaceOnUse" x="0" y="0" width="206" height="33">
<path d="M206 0.435547H0V32.3977H206V0.435547Z" fill="white"/>
</mask>
<g mask="url(#mask0_760_432)">
<path d="M51.6575 13.8313C52.456 12.3876 53.569 11.2585 54.9965 10.452C56.424 9.64544 58.0451 9.24219 59.8517 9.24219C62.0696 9.24219 63.9649 9.83094 65.5457 11.0004C67.1265 12.1698 68.1749 13.7667 68.7072 15.7911H63.7068C63.3358 15.0088 62.8035 14.42 62.1261 14.0087C61.4405 13.5974 60.6663 13.3957 59.7952 13.3957C58.3919 13.3957 57.2628 13.8796 56.3917 14.8555C55.5207 15.8314 55.0852 17.138 55.0852 18.7671C55.0852 20.3963 55.5207 21.7028 56.3917 22.6787C57.2628 23.6546 58.3919 24.1385 59.7952 24.1385C60.6663 24.1385 61.4405 23.9369 62.1261 23.5256C62.8116 23.1142 63.3358 22.5255 63.7068 21.7432H68.7072C68.1749 23.7675 67.1184 25.3564 65.5457 26.5177C63.9649 27.6791 62.0696 28.2598 59.8517 28.2598C58.0451 28.2598 56.424 27.8565 54.9965 27.05C53.569 26.2435 52.456 25.1225 51.6575 23.6869C50.8591 22.2513 50.4639 20.614 50.4639 18.7671C50.4639 16.9202 50.8591 15.2749 51.6575 13.8313Z" fill="white"/>
<path d="M73.8042 27.4138C72.6429 26.7928 71.7315 25.9056 71.0621 24.7523C70.4007 23.599 70.062 22.2521 70.062 20.7116C70.062 19.1712 70.4007 17.8404 71.0702 16.6791C71.7476 15.5177 72.6671 14.6305 73.8365 14.0095C75.0059 13.3885 76.3206 13.082 77.7723 13.082C79.224 13.082 80.5386 13.3885 81.7081 14.0095C82.8775 14.6305 83.797 15.5177 84.4744 16.6791C85.1519 17.8404 85.4826 19.1873 85.4826 20.7116C85.4826 22.2359 85.1438 23.5828 84.4583 24.7442C83.7728 25.9056 82.8453 26.7928 81.6678 27.4138C80.4902 28.0348 79.1756 28.3413 77.7158 28.3413C76.256 28.3413 74.9576 28.0348 73.7962 27.4138H73.8042ZM79.9499 23.4538C80.5628 22.8166 80.8693 21.9053 80.8693 20.7116C80.8693 19.518 80.5709 18.6147 79.9821 17.9695C79.3853 17.3323 78.6595 17.0097 77.7884 17.0097C76.9174 17.0097 76.1673 17.3243 75.5786 17.9533C74.9898 18.5824 74.6995 19.5019 74.6995 20.7036C74.6995 21.9053 74.9898 22.8086 75.5624 23.4457C76.1351 24.0829 76.8609 24.4055 77.732 24.4055C78.603 24.4055 79.345 24.0829 79.9499 23.4457V23.4538Z" fill="white"/>
<path d="M87.3376 16.6617C87.9102 15.5084 88.7006 14.6212 89.6926 14.0002C90.6846 13.3792 91.7895 13.0727 93.0154 13.0727C93.9913 13.0727 94.8785 13.2743 95.685 13.6857C96.4915 14.097 97.1287 14.6454 97.5884 15.331V8.44336H102.137V28.1223H97.5884V25.9931C97.1609 26.7028 96.556 27.2674 95.7657 27.6948C94.9753 28.1223 94.0558 28.332 93.0154 28.332C91.7895 28.332 90.6846 28.0174 89.6926 27.3884C88.7006 26.7593 87.9183 25.864 87.3376 24.7027C86.765 23.5413 86.4746 22.2025 86.4746 20.6701C86.4746 19.1377 86.765 17.807 87.3376 16.6536V16.6617ZM96.6448 18.0167C96.0157 17.3634 95.2495 17.0327 94.3462 17.0327C93.4429 17.0327 92.6767 17.3553 92.0476 18.0005C91.4185 18.6457 91.104 19.541 91.104 20.6701C91.104 21.7992 91.4185 22.7025 92.0476 23.3719C92.6767 24.0333 93.4429 24.372 94.3462 24.372C95.2495 24.372 96.0157 24.0413 96.6448 23.388C97.2738 22.7348 97.5884 21.8395 97.5884 20.7024C97.5884 19.5652 97.2738 18.6699 96.6448 18.0167Z" fill="white"/>
<path d="M118.816 21.8004H108.525C108.597 22.7198 108.896 23.4296 109.412 23.9135C109.936 24.3974 110.581 24.6474 111.34 24.6474C112.477 24.6474 113.267 24.1716 113.711 23.2118H118.55C118.3 24.1877 117.856 25.0668 117.203 25.841C116.558 26.6234 115.743 27.2363 114.767 27.6799C113.791 28.1235 112.703 28.3412 111.493 28.3412C110.041 28.3412 108.743 28.0348 107.613 27.4137C106.476 26.7927 105.589 25.9056 104.952 24.7522C104.315 23.5989 103.992 22.2521 103.992 20.7116C103.992 19.1712 104.307 17.8243 104.936 16.671C105.565 15.5177 106.444 14.6305 107.581 14.0095C108.718 13.3885 110.017 13.082 111.493 13.082C112.969 13.082 114.203 13.3804 115.324 13.9853C116.437 14.5902 117.316 15.4451 117.945 16.5661C118.574 17.6791 118.889 18.9857 118.889 20.4777C118.889 20.9052 118.864 21.3488 118.808 21.8085L118.816 21.8004ZM114.243 19.276C114.243 18.4937 113.977 17.8727 113.445 17.413C112.912 16.9532 112.251 16.7194 111.452 16.7194C110.654 16.7194 110.049 16.9371 109.525 17.3807C109.001 17.8243 108.678 18.4534 108.557 19.2679H114.251L114.243 19.276Z" fill="white"/>
<path d="M130.543 28.1298L126.663 21.0808H125.575V28.1298H121.026V9.45898H128.656C130.131 9.45898 131.382 9.71707 132.422 10.2332C133.462 10.7494 134.237 11.4511 134.753 12.3463C135.269 13.2415 135.527 14.2416 135.527 15.3385C135.527 16.5805 135.18 17.6854 134.479 18.6613C133.777 19.6372 132.745 20.3308 131.382 20.734L135.688 28.1298H130.551H130.543ZM125.567 17.8628H128.389C129.22 17.8628 129.849 17.6612 130.26 17.2499C130.68 16.8386 130.89 16.2659 130.89 15.524C130.89 14.782 130.68 14.2577 130.26 13.8464C129.841 13.4351 129.22 13.2335 128.389 13.2335H125.567V17.8628Z" fill="white"/>
<path d="M137.793 16.6623C138.366 15.509 139.156 14.6219 140.148 14.0008C141.14 13.3798 142.253 13.1621 143.471 13.1621H152.593V28.1229H148.044V26.026C147.6 26.7196 146.987 27.2761 146.197 27.7035C145.407 28.131 144.487 28.3407 143.447 28.3407C142.237 28.3407 141.14 28.0261 140.148 27.3971C139.156 26.768 138.374 25.8727 137.793 24.7114C137.221 23.55 136.93 22.2112 136.93 20.6788C136.93 19.1464 137.221 17.8157 137.793 16.6623ZM147.1 18.0173C146.471 17.364 145.705 17.0333 144.802 17.0333C143.898 17.0333 143.132 17.3559 142.503 18.0012C141.874 18.6464 141.56 19.5416 141.56 20.6707C141.56 21.7998 141.874 22.7031 142.503 23.3725C143.132 24.0339 143.898 24.3726 144.802 24.3726C145.705 24.3726 146.471 24.0419 147.1 23.3887C147.729 22.7354 148.044 21.8402 148.044 20.703C148.044 19.5658 147.729 18.6706 147.1 18.0173Z" fill="white"/>
<path d="M161.747 13.7099C162.545 13.2824 163.457 13.0727 164.489 13.0727C165.715 13.0727 166.82 13.3792 167.812 14.0002C168.804 14.6212 169.586 15.5084 170.167 16.6617C170.74 17.815 171.03 19.1538 171.03 20.6782C171.03 22.2025 170.74 23.5493 170.167 24.7107C169.594 25.8721 168.804 26.7673 167.812 27.3964C166.82 28.0255 165.715 28.34 164.489 28.34C163.441 28.34 162.529 28.1304 161.747 27.719C160.965 27.2996 160.352 26.7512 159.908 26.0576V28.1304H155.359V8.44336H159.908V15.3874C160.336 14.6938 160.949 14.1373 161.747 13.7099ZM165.457 18.0086C164.828 17.3634 164.054 17.0408 163.126 17.0408C162.199 17.0408 161.457 17.3714 160.828 18.0247C160.198 18.678 159.884 19.5732 159.884 20.7104C159.884 21.8476 160.198 22.7428 160.828 23.3961C161.457 24.0494 162.223 24.3801 163.126 24.3801C164.029 24.3801 164.804 24.0494 165.441 23.38C166.078 22.7186 166.401 21.8153 166.401 20.6782C166.401 19.541 166.086 18.6538 165.457 18.0086Z" fill="white"/>
<path d="M179.272 13.7099C180.071 13.2824 180.982 13.0727 182.015 13.0727C183.24 13.0727 184.345 13.3792 185.337 14.0002C186.329 14.6213 187.112 15.5084 187.692 16.6617C188.265 17.815 188.555 19.1539 188.555 20.6782C188.555 22.2025 188.265 23.5494 187.692 24.7108C187.12 25.8721 186.329 26.7674 185.337 27.3964C184.345 28.0255 183.24 28.3401 182.015 28.3401C180.966 28.3401 180.055 28.1304 179.272 27.7191C178.49 27.2997 177.877 26.7512 177.434 26.0576V28.1304H172.885V8.44336H177.434V15.3874C177.861 14.6938 178.474 14.1373 179.272 13.7099ZM182.982 18.0086C182.353 17.3634 181.579 17.0408 180.652 17.0408C179.724 17.0408 178.982 17.3715 178.353 18.0247C177.724 18.678 177.409 19.5733 177.409 20.7104C177.409 21.8476 177.724 22.7429 178.353 23.3961C178.982 24.0494 179.748 24.3801 180.652 24.3801C181.555 24.3801 182.329 24.0494 182.966 23.38C183.603 22.7187 183.926 21.8154 183.926 20.6782C183.926 19.541 183.611 18.6538 182.982 18.0086Z" fill="white"/>
<path d="M190.749 11.0401C190.241 10.5723 189.991 9.99162 189.991 9.29801C189.991 8.60441 190.241 7.99953 190.749 7.53175C191.257 7.06397 191.902 6.83008 192.701 6.83008C193.499 6.83008 194.12 7.06397 194.628 7.53175C195.136 7.99953 195.386 8.58828 195.386 9.29801C195.386 10.0078 195.136 10.5723 194.628 11.0401C194.12 11.5079 193.483 11.7418 192.701 11.7418C191.918 11.7418 191.249 11.5079 190.749 11.0401ZM194.967 13.2903V28.1301H190.418V13.2822H194.967V13.2903Z" fill="white"/>
<path d="M206.001 24.2678V28.1229H203.686C202.041 28.1229 200.75 27.7197 199.831 26.9132C198.911 26.1067 198.452 24.792 198.452 22.9612V17.0576H196.645V13.2831H198.452V9.66992H203V13.2831H205.976V17.0576H203V23.0177C203 23.4613 203.105 23.7839 203.323 23.9775C203.533 24.171 203.888 24.2678 204.388 24.2678H206.009H206.001Z" fill="white"/>
<path d="M23.7923 32.3965C22.0341 31.8158 20.3323 27.8477 18.2192 27.8477C21.1791 29.6301 19.921 31.9932 19.679 32.3965H23.8003H23.7923Z" fill="#FF570A"/>
<path d="M36.5996 18.0169C36.2286 8.58064 28.599 0.886488 19.1709 0.45097C8.66197 -0.0248743 0 8.34675 0 18.7427C0 22.7108 1.25816 26.3804 3.40349 29.3726C4.63746 31.0986 6.56503 32.1874 8.6539 32.3648C5.58108 28.8806 8.19419 25.9691 8.19419 25.9691C6.97635 26.5579 6.47631 28.5419 6.47631 28.5419C4.16968 27.1224 4.70198 25.4288 4.70198 25.4288C4.84715 25.0739 5.17782 24.098 6.95216 24.4529C10.3879 13.1375 21.7033 19.0331 21.7033 19.0331C21.5259 18.6782 20.9371 16.6619 20.9371 16.6619C13.5898 15.5973 11.1057 10.3873 11.1057 10.3873C17.9208 8.31449 22.0662 13.944 22.0662 13.944C20.1709 9.32263 15.6141 11.1615 14.4285 3.58025C22.3405 4.89487 23.4857 11.097 23.647 12.4358C23.7599 12.1777 24.389 11.8309 26.986 11.9842C31.0105 12.218 34.2124 16.3071 34.2124 16.3071C34.2124 24.598 24.0825 22.5979 24.0825 28.8645C24.0825 30.3324 25.6794 30.2437 26.2117 30.9534C26.6472 31.5341 26.4618 32.1793 26.373 32.389H27.3328C29.6072 32.389 31.7686 31.3405 33.1074 29.5017C35.4383 26.2998 36.7609 22.3156 36.5996 18.0088V18.0169Z" fill="#FF570A"/>
</g>
</g>
<defs>
<clipPath id="clip0_760_432">
<rect width="206" height="33" fill="white"/>
</clipPath>
</defs>
</svg>
