<svg width="420" height="170" viewBox="0 0 420 170" fill="none" xmlns="http://www.w3.org/2000/svg">
<path d="M377.824 147.88C376.936 147.88 376.132 147.664 375.412 147.232C374.692 146.776 374.104 146.188 373.648 145.468C373.216 144.748 373 143.944 373 143.056V131.824C373 130.936 373.216 130.132 373.648 129.412C374.104 128.692 374.692 128.116 375.412 127.684C376.132 127.228 376.936 127 377.824 127H394.168V131.284H377.968C377.776 131.284 377.608 131.356 377.464 131.5C377.344 131.62 377.284 131.776 377.284 131.968V142.912C377.284 143.104 377.344 143.272 377.464 143.416C377.608 143.536 377.776 143.596 377.968 143.596H394.204V147.88H377.824Z" fill="white"/>
<path d="M347 147.88V127H363.416C364.28 127 365.072 127.228 365.792 127.684C366.536 128.116 367.124 128.692 367.556 129.412C367.988 130.132 368.204 130.936 368.204 131.824V147.88H363.92V131.968C363.92 131.776 363.848 131.62 363.704 131.5C363.584 131.356 363.44 131.284 363.272 131.284H351.968C351.8 131.284 351.644 131.356 351.5 131.5C351.356 131.62 351.284 131.776 351.284 131.968V147.88H347Z" fill="white"/>
<path d="M325.824 147.88C324.936 147.88 324.132 147.664 323.412 147.232C322.692 146.776 322.104 146.188 321.648 145.468C321.216 144.748 321 143.944 321 143.056V131.824C321 130.936 321.216 130.132 321.648 129.412C322.104 128.692 322.692 128.116 323.412 127.684C324.132 127.228 324.936 127 325.824 127H337.38C338.292 127 339.108 127.228 339.828 127.684C340.548 128.116 341.124 128.692 341.556 129.412C341.988 130.132 342.204 130.936 342.204 131.824V139.6H325.284V142.912C325.284 143.104 325.344 143.272 325.464 143.416C325.608 143.536 325.776 143.596 325.968 143.596H342.204V147.88H325.824ZM325.284 135.676H337.92V131.968C337.92 131.776 337.848 131.62 337.704 131.5C337.584 131.356 337.428 131.284 337.236 131.284H325.968C325.776 131.284 325.608 131.356 325.464 131.5C325.344 131.62 325.284 131.776 325.284 131.968V135.676Z" fill="white"/>
<path d="M299.564 156.124V151.804H312.272C312.44 151.804 312.584 151.732 312.704 151.588C312.848 151.468 312.92 151.312 312.92 151.12V147.88H300.824C299.96 147.88 299.156 147.664 298.412 147.232C297.692 146.776 297.104 146.188 296.648 145.468C296.216 144.748 296 143.944 296 143.056V131.824C296 130.936 296.216 130.132 296.648 129.412C297.104 128.692 297.692 128.116 298.412 127.684C299.156 127.228 299.96 127 300.824 127H312.416C313.304 127 314.108 127.228 314.828 127.684C315.572 128.116 316.148 128.692 316.556 129.412C316.988 130.132 317.204 130.936 317.204 131.824V151.3C317.204 152.188 316.988 152.992 316.556 153.712C316.148 154.456 315.572 155.044 314.828 155.476C314.108 155.908 313.304 156.124 312.416 156.124H299.564ZM300.968 143.596H312.272C312.44 143.596 312.584 143.536 312.704 143.416C312.848 143.272 312.92 143.104 312.92 142.912V131.968C312.92 131.776 312.848 131.62 312.704 131.5C312.584 131.356 312.44 131.284 312.272 131.284H300.968C300.776 131.284 300.608 131.356 300.464 131.5C300.344 131.62 300.284 131.776 300.284 131.968V142.912C300.284 143.104 300.344 143.272 300.464 143.416C300.608 143.536 300.776 143.596 300.968 143.596Z" fill="white"/>
<path d="M287 147.72V126.84H291.284V147.72H287ZM287 124.32V120H291.284V124.32H287Z" fill="white"/>
<path d="M278.824 147.756C277.936 147.756 277.132 147.54 276.412 147.108C275.692 146.652 275.104 146.064 274.648 145.344C274.216 144.624 274 143.82 274 142.932V120H278.32V142.788C278.32 142.98 278.38 143.148 278.5 143.292C278.644 143.412 278.8 143.472 278.968 143.472H282.856V147.756H278.824Z" fill="white"/>
<path d="M265.824 147.756C264.936 147.756 264.132 147.54 263.412 147.108C262.692 146.652 262.104 146.064 261.648 145.344C261.216 144.624 261 143.82 261 142.932V120H265.32V142.788C265.32 142.98 265.38 143.148 265.5 143.292C265.644 143.412 265.8 143.472 265.968 143.472H269.856V147.756H265.824Z" fill="white"/>
<path d="M240.824 147.88C239.936 147.88 239.132 147.664 238.412 147.232C237.692 146.776 237.104 146.188 236.648 145.468C236.216 144.748 236 143.944 236 143.056V131.824C236 130.936 236.216 130.132 236.648 129.412C237.104 128.692 237.692 128.116 238.412 127.684C239.132 127.228 239.936 127 240.824 127H252.38C253.292 127 254.108 127.228 254.828 127.684C255.548 128.116 256.124 128.692 256.556 129.412C256.988 130.132 257.204 130.936 257.204 131.824V139.6H240.284V142.912C240.284 143.104 240.344 143.272 240.464 143.416C240.608 143.536 240.776 143.596 240.968 143.596H257.204V147.88H240.824ZM240.284 135.676H252.92V131.968C252.92 131.776 252.848 131.62 252.704 131.5C252.584 131.356 252.428 131.284 252.236 131.284H240.968C240.776 131.284 240.608 131.356 240.464 131.5C240.344 131.62 240.284 131.776 240.284 131.968V135.676Z" fill="white"/>
<path d="M224.824 147.396C223.936 147.396 223.12 147.18 222.376 146.748C221.656 146.292 221.08 145.704 220.648 144.984C220.216 144.264 220 143.46 220 142.572V120H224.284V126.516H232.636V130.8H224.284V142.428C224.284 142.62 224.344 142.788 224.464 142.932C224.608 143.052 224.776 143.112 224.968 143.112H232.636V147.396H224.824Z" fill="white"/>
<path d="M194 147.88V127H210.416C211.28 127 212.072 127.228 212.792 127.684C213.536 128.116 214.124 128.692 214.556 129.412C214.988 130.132 215.204 130.936 215.204 131.824V147.88H210.92V131.968C210.92 131.776 210.848 131.62 210.704 131.5C210.584 131.356 210.44 131.284 210.272 131.284H198.968C198.8 131.284 198.644 131.356 198.5 131.5C198.356 131.62 198.284 131.776 198.284 131.968V147.88H194Z" fill="white"/>
<path d="M184 147.72V126.84H188.284V147.72H184ZM184 124.32V120H188.284V124.32H184Z" fill="white"/>
<path d="M402.824 147.88C401.936 147.88 401.132 147.664 400.412 147.232C399.692 146.776 399.104 146.188 398.648 145.468C398.216 144.748 398 143.944 398 143.056V131.824C398 130.936 398.216 130.132 398.648 129.412C399.104 128.692 399.692 128.116 400.412 127.684C401.132 127.228 401.936 127 402.824 127H414.38C415.292 127 416.108 127.228 416.828 127.684C417.548 128.116 418.124 128.692 418.556 129.412C418.988 130.132 419.204 130.936 419.204 131.824V139.6H402.284V142.912C402.284 143.104 402.344 143.272 402.464 143.416C402.608 143.536 402.776 143.596 402.968 143.596H419.204V147.88H402.824ZM402.284 135.676H414.92V131.968C414.92 131.776 414.848 131.62 414.704 131.5C414.584 131.356 414.428 131.284 414.236 131.284H402.968C402.776 131.284 402.608 131.356 402.464 131.5C402.344 131.62 402.284 131.776 402.284 131.968V135.676Z" fill="white"/>
<path d="M334.824 112.88C333.936 112.88 333.132 112.664 332.412 112.232C331.692 111.776 331.104 111.188 330.648 110.468C330.216 109.748 330 108.944 330 108.056V96.824C330 95.936 330.216 95.132 330.648 94.412C331.104 93.692 331.692 93.116 332.412 92.684C333.132 92.228 333.936 92 334.824 92H346.38C347.292 92 348.108 92.228 348.828 92.684C349.548 93.116 350.124 93.692 350.556 94.412C350.988 95.132 351.204 95.936 351.204 96.824V104.6H334.284V107.912C334.284 108.104 334.344 108.272 334.464 108.416C334.608 108.536 334.776 108.596 334.968 108.596H351.204V112.88H334.824ZM334.284 100.676H346.92V96.968C346.92 96.776 346.848 96.62 346.704 96.5C346.584 96.356 346.428 96.284 346.236 96.284H334.968C334.776 96.284 334.608 96.356 334.464 96.5C334.344 96.62 334.284 96.776 334.284 96.968V100.676Z" fill="white"/>
<path d="M305 112.88V92H321.416C322.28 92 323.072 92.228 323.792 92.684C324.536 93.116 325.124 93.692 325.556 94.412C325.988 95.132 326.204 95.936 326.204 96.824V112.88H321.92V96.968C321.92 96.776 321.848 96.62 321.704 96.5C321.584 96.356 321.44 96.284 321.272 96.284H309.968C309.8 96.284 309.644 96.356 309.5 96.5C309.356 96.62 309.284 96.776 309.284 96.968V112.88H305Z" fill="white"/>
<path d="M295 112.72V91.84H299.284V112.72H295ZM295 89.32V85H299.284V89.32H295Z" fill="white"/>
<path d="M270 112.72V85H274.284V91.84H286.416C287.28 91.84 288.072 92.068 288.792 92.524C289.536 92.956 290.124 93.532 290.556 94.252C290.988 94.972 291.204 95.776 291.204 96.664V112.72H286.92V96.808C286.92 96.616 286.848 96.46 286.704 96.34C286.584 96.196 286.44 96.124 286.272 96.124H274.968C274.8 96.124 274.644 96.196 274.5 96.34C274.356 96.46 274.284 96.616 274.284 96.808V112.72H270Z" fill="white"/>
<path d="M249.824 112.88C248.936 112.88 248.132 112.664 247.412 112.232C246.692 111.776 246.104 111.188 245.648 110.468C245.216 109.748 245 108.944 245 108.056V96.824C245 95.936 245.216 95.132 245.648 94.412C246.104 93.692 246.692 93.116 247.412 92.684C248.132 92.228 248.936 92 249.824 92H266.168V96.284H249.968C249.776 96.284 249.608 96.356 249.464 96.5C249.344 96.62 249.284 96.776 249.284 96.968V107.912C249.284 108.104 249.344 108.272 249.464 108.416C249.608 108.536 249.776 108.596 249.968 108.596H266.204V112.88H249.824Z" fill="white"/>
<path d="M224.824 112.88C223.936 112.88 223.12 112.664 222.376 112.232C221.656 111.776 221.08 111.188 220.648 110.468C220.216 109.748 220 108.944 220 108.056V100.28H236.92V96.968C236.92 96.776 236.848 96.62 236.704 96.5C236.584 96.356 236.428 96.284 236.236 96.284H220V92H236.38C237.292 92 238.108 92.228 238.828 92.684C239.548 93.116 240.124 93.692 240.556 94.412C240.988 95.132 241.204 95.936 241.204 96.824V112.88H224.824ZM224.968 108.596H236.92V104.204H224.284V107.912C224.284 108.104 224.344 108.272 224.464 108.416C224.608 108.536 224.776 108.596 224.968 108.596Z" fill="white"/>
<path d="M184 112.88V92H210.28C211.192 92 212.008 92.228 212.728 92.684C213.448 93.116 214.024 93.692 214.456 94.412C214.888 95.132 215.104 95.936 215.104 96.824V112.88H210.82V96.968C210.82 96.776 210.748 96.62 210.604 96.5C210.484 96.356 210.328 96.284 210.136 96.284H202.396C202.228 96.284 202.072 96.356 201.928 96.5C201.808 96.62 201.748 96.776 201.748 96.968V112.88H197.392V96.968C197.392 96.776 197.332 96.62 197.212 96.5C197.092 96.356 196.936 96.284 196.744 96.284H188.968C188.8 96.284 188.644 96.356 188.5 96.5C188.38 96.62 188.32 96.776 188.32 96.968V112.88H184Z" fill="white"/>
<path d="M375.824 77.756C374.936 77.756 374.132 77.54 373.412 77.108C372.692 76.652 372.104 76.064 371.648 75.344C371.216 74.624 371 73.82 371 72.932V50H375.32V72.788C375.32 72.98 375.38 73.148 375.5 73.292C375.644 73.412 375.8 73.472 375.968 73.472H379.856V77.756H375.824Z" fill="white"/>
<path d="M349.824 77.88C348.936 77.88 348.12 77.664 347.376 77.232C346.656 76.776 346.08 76.188 345.648 75.468C345.216 74.748 345 73.944 345 73.056V65.28H361.92V61.968C361.92 61.776 361.848 61.62 361.704 61.5C361.584 61.356 361.428 61.284 361.236 61.284H345V57H361.38C362.292 57 363.108 57.228 363.828 57.684C364.548 58.116 365.124 58.692 365.556 59.412C365.988 60.132 366.204 60.936 366.204 61.824V77.88H349.824ZM349.968 73.596H361.92V69.204H349.284V72.912C349.284 73.104 349.344 73.272 349.464 73.416C349.608 73.536 349.776 73.596 349.968 73.596Z" fill="white"/>
<path d="M324.824 77.88C323.936 77.88 323.132 77.664 322.412 77.232C321.692 76.776 321.104 76.188 320.648 75.468C320.216 74.748 320 73.944 320 73.056V72.372H324.284V72.912C324.284 73.104 324.344 73.272 324.464 73.416C324.608 73.536 324.776 73.596 324.968 73.596H336.236C336.428 73.596 336.584 73.536 336.704 73.416C336.848 73.272 336.92 73.104 336.92 72.912V70.248C336.92 70.08 336.848 69.936 336.704 69.816C336.584 69.672 336.428 69.6 336.236 69.6H324.824C323.936 69.6 323.132 69.384 322.412 68.952C321.692 68.496 321.104 67.908 320.648 67.188C320.216 66.468 320 65.664 320 64.776V61.824C320 60.936 320.216 60.132 320.648 59.412C321.104 58.692 321.692 58.116 322.412 57.684C323.132 57.228 323.936 57 324.824 57H336.38C337.292 57 338.108 57.228 338.828 57.684C339.548 58.116 340.124 58.692 340.556 59.412C341.012 60.132 341.24 60.936 341.24 61.824V62.508H336.92V61.968C336.92 61.776 336.848 61.62 336.704 61.5C336.584 61.356 336.428 61.284 336.236 61.284H324.968C324.776 61.284 324.608 61.356 324.464 61.5C324.344 61.62 324.284 61.776 324.284 61.968V64.632C324.284 64.8 324.344 64.956 324.464 65.1C324.608 65.22 324.776 65.28 324.968 65.28H336.38C337.292 65.28 338.108 65.508 338.828 65.964C339.548 66.396 340.124 66.972 340.556 67.692C341.012 68.412 341.24 69.216 341.24 70.104V73.056C341.24 73.944 341.012 74.748 340.556 75.468C340.124 76.188 339.548 76.776 338.828 77.232C338.108 77.664 337.292 77.88 336.38 77.88H324.824Z" fill="white"/>
<path d="M300 77.88V61.824C300 60.936 300.216 60.132 300.648 59.412C301.104 58.692 301.692 58.116 302.412 57.684C303.156 57.228 303.96 57 304.824 57H316.452V61.284H304.968C304.776 61.284 304.608 61.356 304.464 61.5C304.344 61.62 304.284 61.776 304.284 61.968V77.88H300Z" fill="white"/>
<path d="M278.824 77.88C277.936 77.88 277.132 77.664 276.412 77.232C275.692 76.776 275.104 76.188 274.648 75.468C274.216 74.748 274 73.944 274 73.056V61.824C274 60.936 274.216 60.132 274.648 59.412C275.104 58.692 275.692 58.116 276.412 57.684C277.132 57.228 277.936 57 278.824 57H290.38C291.292 57 292.108 57.228 292.828 57.684C293.548 58.116 294.124 58.692 294.556 59.412C294.988 60.132 295.204 60.936 295.204 61.824V69.6H278.284V72.912C278.284 73.104 278.344 73.272 278.464 73.416C278.608 73.536 278.776 73.596 278.968 73.596H295.204V77.88H278.824ZM278.284 65.676H290.92V61.968C290.92 61.776 290.848 61.62 290.704 61.5C290.584 61.356 290.428 61.284 290.236 61.284H278.968C278.776 61.284 278.608 61.356 278.464 61.5C278.344 61.62 278.284 61.776 278.284 61.968V65.676Z" fill="white"/>
<path d="M255.484 77.88L244 57H248.968L257.572 72.804L266.176 57H271.144L259.588 77.88H255.484Z" fill="white"/>
<path d="M236 77.72V56.84H240.284V77.72H236ZM236 54.32V50H240.284V54.32H236Z" fill="white"/>
<path d="M210 77.88V57H226.416C227.28 57 228.072 57.228 228.792 57.684C229.536 58.116 230.124 58.692 230.556 59.412C230.988 60.132 231.204 60.936 231.204 61.824V77.88H226.92V61.968C226.92 61.776 226.848 61.62 226.704 61.5C226.584 61.356 226.44 61.284 226.272 61.284H214.968C214.8 61.284 214.644 61.356 214.5 61.5C214.356 61.62 214.284 61.776 214.284 61.968V77.88H210Z" fill="white"/>
<path d="M188.824 77.88C187.936 77.88 187.12 77.664 186.376 77.232C185.656 76.776 185.08 76.188 184.648 75.468C184.216 74.748 184 73.944 184 73.056V57H188.284V72.912C188.284 73.104 188.344 73.272 188.464 73.416C188.608 73.536 188.776 73.596 188.968 73.596H200.236C200.428 73.596 200.584 73.536 200.704 73.416C200.848 73.272 200.92 73.104 200.92 72.912V57H205.204V73.056C205.204 73.944 204.988 74.748 204.556 75.468C204.124 76.188 203.548 76.776 202.828 77.232C202.108 77.664 201.292 77.88 200.38 77.88H188.824Z" fill="white"/>
<path d="M261 42.88V22H277.416C278.28 22 279.072 22.228 279.792 22.684C280.536 23.116 281.124 23.692 281.556 24.412C281.988 25.132 282.204 25.936 282.204 26.824V42.88H277.92V26.968C277.92 26.776 277.848 26.62 277.704 26.5C277.584 26.356 277.44 26.284 277.272 26.284H265.968C265.8 26.284 265.644 26.356 265.5 26.5C265.356 26.62 265.284 26.776 265.284 26.968V42.88H261Z" fill="white"/>
<path d="M239.824 42.88C238.936 42.88 238.132 42.664 237.412 42.232C236.692 41.776 236.104 41.188 235.648 40.468C235.216 39.748 235 38.944 235 38.056V26.824C235 25.936 235.216 25.132 235.648 24.412C236.104 23.692 236.692 23.116 237.412 22.684C238.132 22.228 238.936 22 239.824 22H251.38C252.292 22 253.108 22.228 253.828 22.684C254.548 23.116 255.124 23.692 255.556 24.412C255.988 25.132 256.204 25.936 256.204 26.824V34.6H239.284V37.912C239.284 38.104 239.344 38.272 239.464 38.416C239.608 38.536 239.776 38.596 239.968 38.596H256.204V42.88H239.824ZM239.284 30.676H251.92V26.968C251.92 26.776 251.848 26.62 251.704 26.5C251.584 26.356 251.428 26.284 251.236 26.284H239.968C239.776 26.284 239.608 26.356 239.464 26.5C239.344 26.62 239.284 26.776 239.284 26.968V30.676Z" fill="white"/>
<path d="M210 51.16V22H226.416C227.28 22 228.072 22.228 228.792 22.684C229.536 23.116 230.124 23.692 230.556 24.412C230.988 25.132 231.204 25.936 231.204 26.824V38.056C231.204 38.944 230.988 39.748 230.556 40.468C230.124 41.188 229.536 41.776 228.792 42.232C228.072 42.664 227.28 42.88 226.416 42.88H214.284V51.16H210ZM214.968 38.596H226.272C226.44 38.596 226.584 38.536 226.704 38.416C226.848 38.272 226.92 38.104 226.92 37.912V26.968C226.92 26.776 226.848 26.62 226.704 26.5C226.584 26.356 226.44 26.284 226.272 26.284H214.968C214.8 26.284 214.644 26.356 214.5 26.5C214.356 26.62 214.284 26.776 214.284 26.968V37.912C214.284 38.104 214.356 38.272 214.5 38.416C214.644 38.536 214.8 38.596 214.968 38.596Z" fill="white"/>
<path d="M188.824 42.88C187.936 42.88 187.132 42.664 186.412 42.232C185.692 41.776 185.104 41.188 184.648 40.468C184.216 39.748 184 38.944 184 38.056V26.824C184 25.936 184.216 25.132 184.648 24.412C185.104 23.692 185.692 23.116 186.412 22.684C187.132 22.228 187.936 22 188.824 22H200.38C201.292 22 202.108 22.228 202.828 22.684C203.548 23.116 204.124 23.692 204.556 24.412C204.988 25.132 205.204 25.936 205.204 26.824V38.056C205.204 38.944 204.988 39.748 204.556 40.468C204.124 41.188 203.548 41.776 202.828 42.232C202.108 42.664 201.292 42.88 200.38 42.88H188.824ZM188.968 38.596H200.236C200.428 38.596 200.584 38.536 200.704 38.416C200.848 38.272 200.92 38.104 200.92 37.912V26.968C200.92 26.776 200.848 26.62 200.704 26.5C200.584 26.356 200.428 26.284 200.236 26.284H188.968C188.776 26.284 188.608 26.356 188.464 26.5C188.344 26.62 188.284 26.776 188.284 26.968V37.912C188.284 38.104 188.344 38.272 188.464 38.416C188.608 38.536 188.776 38.596 188.968 38.596Z" fill="white"/>
<path d="M170 0H0V170H170V0Z" fill="white"/>
<path d="M0.5 169.5V0.5H169.5V169.5H0.5Z" stroke="black" stroke-opacity="0.1"/>
<path fill-rule="evenodd" clip-rule="evenodd" d="M78 78H22V22H78V78ZM64 36H36V64H64V36Z" fill="black"/>
<path fill-rule="evenodd" clip-rule="evenodd" d="M148 78H92V22H106V64H134V22H148V78Z" fill="black"/>
<path fill-rule="evenodd" clip-rule="evenodd" d="M120 148H106V106H36V148H22V92H120V148Z" fill="black"/>
<path fill-rule="evenodd" clip-rule="evenodd" d="M64 92H78V148H64V92Z" fill="black"/>
<path fill-rule="evenodd" clip-rule="evenodd" d="M134 92H148V148H134V92Z" fill="black"/>
</svg>
